<?xml version="1.0" encoding="utf-8"?>
<!-- Generator: Adobe Illustrator 20.1.0, SVG Export Plug-In . SVG Version: 6.00 Build 0)  -->
<svg version="1.1" id="Слой_1" xmlns="http://www.w3.org/2000/svg" xmlns:xlink="http://www.w3.org/1999/xlink" x="0px" y="0px"
	 viewBox="0 0 44 22.1" style="enable-background:new 0 0 44 22.1;" xml:space="preserve">
<style type="text/css">
	.st0{fill:#212121;}
</style>
<g>
	<g>
		<path class="st0" d="M44,11.1c0-0.4-0.2-0.7-0.6-0.9h0.1C38.2,4.6,30.3,0,22,0S5.8,4.6,0.5,10.1h0.1C0.2,10.3,0,10.7,0,11.1
			c0,0.4,0.2,0.7,0.6,0.9H0.5C5.8,17.5,13.7,22.1,22,22.1S38.2,17.5,43.5,12h-0.1C43.8,11.8,44,11.5,44,11.1z M40.6,12
			C35.8,16.3,29,20.1,22,20.1c-7,0-13.8-3.8-18.6-8.1l-0.9-0.9L3.7,10l0,0C8.4,5.7,15.1,2,22,2c7,0,13.8,3.8,18.6,8.1l0.9,0.9
			C41.5,11.1,40.6,12,40.6,12z M22,4.1c-3.9,0-7,3.1-7,7s3.1,7,7,7s7-3.1,7-7S25.9,4.1,22,4.1z M22,16.1c-2.8,0-5-2.2-5-5s2.2-5,5-5
			s5,2.2,5,5S24.8,16.1,22,16.1z"/>
	</g>
</g>
</svg>
